<svg xmlns="http://www.w3.org/2000/svg" xmlns:xlink="http://www.w3.org/1999/xlink" width="204" height="50" viewBox="0 0 204 50">
  <defs>
    <linearGradient id="linear-gradient" x1="0.5" x2="0.5" y2="1" gradientUnits="objectBoundingBox">
      <stop offset="0" stop-color="#1e88e5"/>
      <stop offset="1" stop-color="#1976d2"/>
    </linearGradient>
  </defs>
  <g id="logo" transform="translate(-538 -313)">
    <rect id="Rectangle_1" data-name="Rectangle 1" width="204" height="50" transform="translate(538 313)" fill="none" opacity="0"/>
    <path id="Path_5734" data-name="Path 5734" d="M539.416,336.716v20.648h29.056V336.716Z" fill="#fff"/>
    <path id="Path_5733" data-name="Path 5733" d="M539.416,357.242s-.022-.312,0,.563,1.147.82,1.147.82l27.9-3.758V352.7s-12.338.367-12.57.444-10.682,2.529-10.772,2.554-3.548,1.174-3.548,1.174Z" fill="#ffd306"/>
    <path id="Path_9" data-name="Path 9" d="M892.547,393.914a3.147,3.147,0,0,0-3.154,3.154v31.426a4.61,4.61,0,0,1,.73-1.636,8.209,8.209,0,0,1,1.554-1.378l.194-.84a2.37,2.37,0,0,1-1.071.1c-.505-.086-.679-.3-.4-.876a10.6,10.6,0,0,1,1.8-1.759.639.639,0,0,1,.4-.106h3.366l.307-.533h1.379a2.772,2.772,0,0,1-.971,1.163,8.106,8.106,0,0,1-2.414.273l-2.038.018-.478.6,10.651.266s3.5-1.942,5.583-2.836,5.344-1.99,6.912-2.455a27.234,27.234,0,0,1,3.574-.9V397.068a3.147,3.147,0,0,0-3.154-3.154Zm25.915,24.77c-.1.011-.188.02-.3.035a27.343,27.343,0,0,0-7.018,1.683,85.261,85.261,0,0,0-13.92,7.282c-3.137,2.2-5.213,3.81-5.213,3.81s5.622-3.445,8.5-5c2.738-1.476,10.918-6.384,17.948-6.406v-1.409Zm-19.973,2.027,2.35.069v.708l-2.393-.069.044-.708Zm-.458,1.435,4.311.225v.739l-4.969-.182a2.579,2.579,0,0,0,.438-.344,1.97,1.97,0,0,0,.219-.439Zm20.431,1.948c-.784,1.383-1.619,2.91-2,3.788a21.414,21.414,0,0,0-1.17,3.864c-7.453-.319-19.424,2.782-25.9,5.253v.518c0,.081,0,.162.01.242a80.376,80.376,0,0,1,12.575-3.607c4.261-.689,12.631-1.048,16.483-1.182v-8.875Zm0,9.505a36.012,36.012,0,0,1-8.542,1.578,105.437,105.437,0,0,0-20.5,2.737,3.146,3.146,0,0,0,3.128,2.757h22.761a3.147,3.147,0,0,0,3.154-3.154V433.6Z" transform="translate(-349.977 -80.03)" fill="url(#linear-gradient)"/>
  </g>
</svg>
