<svg xmlns="http://www.w3.org/2000/svg" xmlns:xlink="http://www.w3.org/1999/xlink" width="204" height="50" viewBox="0 0 204 50">
  <defs>
    <linearGradient id="linear-gradient" x1="0.5" x2="0.5" y2="1" gradientUnits="objectBoundingBox">
      <stop offset="0" stop-color="#1e88e5"/>
      <stop offset="1" stop-color="#1976d2"/>
    </linearGradient>
  </defs>
  <g id="logo" transform="translate(-538 -313)">
    <rect id="Rectangle_1" data-name="Rectangle 1" width="204" height="50" transform="translate(538 313)" fill="none" opacity="0"/>
    <path id="Path_5734" data-name="Path 5734" d="M539.416,336.716v20.648h29.056V336.716Z" fill="#fff"/>
    <path id="Path_5733" data-name="Path 5733" d="M539.416,357.242s-.022-.312,0,.563,1.147.82,1.147.82l27.9-3.758V352.7s-12.338.367-12.57.444-10.682,2.529-10.772,2.554-3.548,1.174-3.548,1.174Z" fill="#ffd306"/>
    <path id="Path_9" data-name="Path 9" d="M892.547,393.914a3.147,3.147,0,0,0-3.154,3.154v31.426a4.61,4.61,0,0,1,.73-1.636,8.209,8.209,0,0,1,1.554-1.378l.194-.84a2.37,2.37,0,0,1-1.071.1c-.505-.086-.679-.3-.4-.876a10.6,10.6,0,0,1,1.8-1.759.639.639,0,0,1,.4-.106h3.366l.307-.533h1.379a2.772,2.772,0,0,1-.971,1.163,8.106,8.106,0,0,1-2.414.273l-2.038.018-.478.6,10.651.266s3.5-1.942,5.583-2.836,5.344-1.99,6.912-2.455a27.234,27.234,0,0,1,3.574-.9V397.068a3.147,3.147,0,0,0-3.154-3.154Zm25.915,24.77c-.1.011-.188.02-.3.035a27.343,27.343,0,0,0-7.018,1.683,85.261,85.261,0,0,0-13.92,7.282c-3.137,2.2-5.213,3.81-5.213,3.81s5.622-3.445,8.5-5c2.738-1.476,10.918-6.384,17.948-6.406v-1.409Zm-19.973,2.027,2.35.069v.708l-2.393-.069.044-.708Zm-.458,1.435,4.311.225v.739l-4.969-.182a2.579,2.579,0,0,0,.438-.344,1.97,1.97,0,0,0,.219-.439Zm20.431,1.948c-.784,1.383-1.619,2.91-2,3.788a21.414,21.414,0,0,0-1.17,3.864c-7.453-.319-19.424,2.782-25.9,5.253v.518c0,.081,0,.162.01.242a80.376,80.376,0,0,1,12.575-3.607c4.261-.689,12.631-1.048,16.483-1.182v-8.875Zm0,9.505a36.012,36.012,0,0,1-8.542,1.578,105.437,105.437,0,0,0-20.5,2.737,3.146,3.146,0,0,0,3.128,2.757h22.761a3.147,3.147,0,0,0,3.154-3.154V433.6Z" transform="translate(-349.977 -80.03)" fill="url(#linear-gradient)"/>
    <path id="Path_12" data-name="Path 12" d="M1.414-2.318H7.1V-3.537H2.829v-7.9H1.414Zm11.02.133c2.009,0,3.241-1.346,3.241-3.557v-.013c0-2.211-1.238-3.557-3.241-3.557S9.186-7.96,9.186-5.755v.013C9.186-3.531,10.418-2.185,12.434-2.185Zm0-1.144c-1.182,0-1.845-.891-1.845-2.414v-.013c0-1.523.663-2.414,1.845-2.414s1.845.891,1.845,2.414v.013C14.279-4.226,13.609-3.328,12.434-3.328ZM21.318.1C23.264.1,24.5-.9,24.5-2.457V-9.179H23.132v1.125h-.082a2.274,2.274,0,0,0-2.1-1.245c-1.782,0-2.875,1.384-2.875,3.342v.013c0,1.933,1.087,3.292,2.85,3.292a2.314,2.314,0,0,0,2.117-1.163h.1v1.352c0,.935-.67,1.466-1.8,1.466-.929,0-1.485-.335-1.6-.809l-.006-.013H18.349l-.013.013C18.5-.662,19.574.1,21.318.1ZM21.3-3.783c-1.169,0-1.826-.891-1.826-2.167v-.013c0-1.276.657-2.173,1.826-2.173a1.916,1.916,0,0,1,1.864,2.173v.013C23.163-4.668,22.462-3.783,21.3-3.783Zm7-6.622a.863.863,0,0,0,.859-.853.864.864,0,0,0-.859-.859.86.86,0,0,0-.859.859A.859.859,0,0,0,28.294-10.4Zm-.689,8.087H28.97V-9.179H27.606Zm6.97.133c1.63,0,2.843-.866,2.843-2.136v-.013c0-.992-.632-1.554-1.952-1.864L34.38-6.443c-.771-.183-1.087-.449-1.087-.878v-.013c0-.55.543-.922,1.3-.922a1.308,1.308,0,0,1,1.39.84V-7.4h1.308V-7.41c-.12-1.118-1.125-1.9-2.692-1.9s-2.666.859-2.666,2.053v.006c0,1,.6,1.592,1.9,1.889l1.093.253c.8.183,1.118.474,1.118.9v.013c0,.562-.588.948-1.434.948a1.4,1.4,0,0,1-1.485-.866l-.006-.006H31.739v.006C31.871-2.962,32.92-2.185,34.575-2.185Zm8.132-.088a4.388,4.388,0,0,0,.739-.07V-3.436a4.518,4.518,0,0,1-.518.025c-.676,0-.954-.3-.954-1.043V-8.1h1.472v-1.08H41.975V-10.91h-1.4v1.731H39.5V-8.1h1.074v3.974C40.579-2.8,41.2-2.273,42.708-2.273ZM46.872-10.4a.863.863,0,0,0,.859-.853.864.864,0,0,0-.859-.859.86.86,0,0,0-.859.859A.859.859,0,0,0,46.872-10.4Zm-.689,8.087h1.365V-9.179H46.184Zm7.362.133a2.693,2.693,0,0,0,2.925-2.249l.013-.057H55.169l-.013.032a1.51,1.51,0,0,1-1.611,1.131c-1.131,0-1.832-.922-1.832-2.439V-5.78c0-1.478.689-2.388,1.832-2.388a1.526,1.526,0,0,1,1.617,1.182l.006.019,1.314-.006v-.032a2.7,2.7,0,0,0-2.944-2.306c-2,0-3.222,1.358-3.222,3.532v.013C50.317-3.55,51.542-2.185,53.545-2.185Zm8.094,0c1.63,0,2.843-.866,2.843-2.136v-.013c0-.992-.632-1.554-1.952-1.864l-1.087-.246c-.771-.183-1.087-.449-1.087-.878v-.013c0-.55.543-.922,1.3-.922a1.308,1.308,0,0,1,1.39.84V-7.4H64.35V-7.41c-.12-1.118-1.125-1.9-2.692-1.9s-2.666.859-2.666,2.053v.006c0,1,.6,1.592,1.9,1.889l1.093.253c.8.183,1.118.474,1.118.9v.013c0,.562-.588.948-1.434.948a1.4,1.4,0,0,1-1.485-.866l-.006-.006H58.8v.006C58.936-2.962,59.984-2.185,61.64-2.185Zm13.125,0A2.693,2.693,0,0,0,77.69-4.434l.013-.057H76.388l-.013.032a1.51,1.51,0,0,1-1.611,1.131c-1.131,0-1.832-.922-1.832-2.439V-5.78c0-1.478.689-2.388,1.832-2.388a1.526,1.526,0,0,1,1.617,1.182l.006.019L77.7-6.974v-.032a2.7,2.7,0,0,0-2.944-2.306c-2,0-3.222,1.358-3.222,3.532v.013C71.536-3.55,72.762-2.185,74.764-2.185ZM82.246-2.2a2.24,2.24,0,0,0,2.034-1.087h.107v.973h1.358V-7.012c0-1.441-.973-2.3-2.7-2.3-1.561,0-2.641.752-2.805,1.877l-.006.044h1.321l.006-.025c.164-.487.663-.765,1.422-.765.929,0,1.4.417,1.4,1.169v.607L82.53-6.3c-1.636.1-2.559.815-2.559,2.041v.013A2.066,2.066,0,0,0,82.246-2.2Zm-.91-2.1v-.013c0-.619.43-.96,1.377-1.017l1.674-.107v.588A1.633,1.633,0,0,1,82.612-3.3C81.873-3.3,81.336-3.67,81.336-4.3Zm7.456,1.984h1.371v-4.1a1.608,1.608,0,0,1,1.763-1.636,3.581,3.581,0,0,1,.739.082V-9.236a3.013,3.013,0,0,0-.6-.063,1.746,1.746,0,0,0-1.8,1.156h-.1V-9.179H88.793Zm13.529.044a4.388,4.388,0,0,0,.739-.07V-3.436a4.518,4.518,0,0,1-.518.025c-.676,0-.954-.3-.954-1.043V-8.1h1.472v-1.08h-1.472V-10.91h-1.4v1.731H99.118V-8.1h1.074v3.974C100.192-2.8,100.811-2.273,102.322-2.273Zm3.451-.044h1.371v-4.1a1.608,1.608,0,0,1,1.763-1.636,3.581,3.581,0,0,1,.739.082V-9.236a3.013,3.013,0,0,0-.6-.063,1.746,1.746,0,0,0-1.8,1.156h-.1V-9.179h-1.371ZM113.9-2.2a2.24,2.24,0,0,0,2.034-1.087h.107v.973H117.4V-7.012c0-1.441-.973-2.3-2.7-2.3-1.561,0-2.641.752-2.805,1.877l-.006.044h1.321l.006-.025c.164-.487.663-.765,1.422-.765.929,0,1.4.417,1.4,1.169v.607l-1.858.107c-1.636.1-2.559.815-2.559,2.041v.013A2.066,2.066,0,0,0,113.9-2.2Zm-.91-2.1v-.013c0-.619.43-.96,1.377-1.017l1.674-.107v.588A1.633,1.633,0,0,1,114.271-3.3C113.532-3.3,112.995-3.67,112.995-4.3Zm7.456,1.984h1.371V-6.342a1.6,1.6,0,0,1,1.63-1.794c1,0,1.478.562,1.478,1.7v4.119H126.3V-6.759a2.233,2.233,0,0,0-2.382-2.553,2.014,2.014,0,0,0-1.99,1.175h-.1V-9.179h-1.371Zm11.361.133c1.63,0,2.843-.866,2.843-2.136v-.013c0-.992-.632-1.554-1.952-1.864l-1.087-.246c-.771-.183-1.087-.449-1.087-.878v-.013c0-.55.543-.922,1.3-.922a1.308,1.308,0,0,1,1.39.84V-7.4h1.308V-7.41c-.12-1.118-1.125-1.9-2.692-1.9s-2.666.859-2.666,2.053v.006c0,1,.6,1.592,1.9,1.889l1.093.253c.8.183,1.118.474,1.118.9v.013c0,.562-.588.948-1.434.948a1.4,1.4,0,0,1-1.485-.866l-.006-.006h-1.371v.006C129.108-2.962,130.157-2.185,131.812-2.185ZM137.4-.03h1.371V-3.4h.1a2.291,2.291,0,0,0,2.11,1.2c1.744,0,2.843-1.365,2.843-3.538v-.013c0-2.161-1.112-3.545-2.843-3.545a2.281,2.281,0,0,0-2.11,1.2h-.1v-1.08H137.4Zm3.2-3.342c-1.144,0-1.851-.9-1.851-2.369v-.013c0-1.466.708-2.369,1.851-2.369s1.832.891,1.832,2.369v.013C142.434-4.27,141.745-3.373,140.6-3.373Zm8.891,1.188c2.009,0,3.241-1.346,3.241-3.557v-.013c0-2.211-1.238-3.557-3.241-3.557s-3.248,1.352-3.248,3.557v.013C146.245-3.531,147.477-2.185,149.492-2.185Zm0-1.144c-1.182,0-1.845-.891-1.845-2.414v-.013c0-1.523.663-2.414,1.845-2.414s1.845.891,1.845,2.414v.013C151.337-4.226,150.667-3.328,149.492-3.328Zm5.984,1.011h1.371v-4.1a1.608,1.608,0,0,1,1.763-1.636,3.581,3.581,0,0,1,.739.082V-9.236a3.013,3.013,0,0,0-.6-.063,1.746,1.746,0,0,0-1.8,1.156h-.1V-9.179h-1.371Zm9.232.044a4.388,4.388,0,0,0,.739-.07V-3.436a4.518,4.518,0,0,1-.518.025c-.676,0-.954-.3-.954-1.043V-8.1h1.472v-1.08h-1.472V-10.91h-1.4v1.731H161.5V-8.1h1.074v3.974C162.579-2.8,163.2-2.273,164.708-2.273Z" transform="translate(574.617 360.336)" fill="#051329"/>
    <path id="Path_14" data-name="Path 14" d="M8.643-.411A7.249,7.249,0,0,0,15.211-4.09h.125V-.765h6.069V-16.042c0-4.49-3.721-7.462-9.478-7.462-5.882,0-9.416,2.952-9.748,7.067l-.021.249h5.55l.042-.187c.291-1.434,1.663-2.494,3.928-2.494,2.37,0,3.658,1.226,3.658,3.2V-14.3l-5.508.333C4.3-13.61,1.16-11.241,1.16-7.187v.042C1.16-3.217,4.174-.411,8.643-.411ZM7.167-7.458V-7.5c0-1.58,1.226-2.577,3.575-2.723l4.594-.291v1.6c0,2.328-2,4.074-4.718,4.074C8.518-4.839,7.167-5.816,7.167-7.458ZM24.121-.765H30.19V-14.213c0-2.515,1.559-4.261,3.866-4.261,2.245,0,3.6,1.413,3.6,3.8V-.765h5.841V-14.317c0-2.473,1.517-4.157,3.825-4.157,2.349,0,3.637,1.413,3.637,3.991V-.765h6.069V-16c0-4.49-2.931-7.5-7.3-7.5a7.075,7.075,0,0,0-6.922,4.594h-.125A5.9,5.9,0,0,0,36.551-23.5a6.378,6.378,0,0,0-6.236,4.2H30.19v-3.741H24.121Zm45.7.457c6.36,0,9.437-3.762,10.122-7.046l.062-.229h-5.57l-.042.125a4.494,4.494,0,0,1-4.448,2.619c-3.1,0-5.03-2.079-5.092-5.633h15.34v-1.871c0-6.734-4.095-11.162-10.621-11.162s-10.7,4.531-10.7,11.619v.021C58.867-4.735,63-.307,69.821-.307Zm-.146-18.665c2.515,0,4.323,1.6,4.7,4.677H64.916C65.31-17.31,67.181-18.973,69.675-18.973ZM80.29-.765h6.381L90.849-8.5h.125l4.24,7.732H101.8L94.9-12.03l6.963-11.016h-6.61l-3.949,7.524h-.125L87.17-23.047H80.331l6.942,11.183Z" transform="translate(574.871 346.32)" fill="#051329"/>
    <path id="Path_13" data-name="Path 13" d="M2.191-1.058H8.261V-31.052H2.191Zm12.132-25.15a3.19,3.19,0,0,0,3.243-3.159,3.19,3.19,0,0,0-3.243-3.159,3.19,3.19,0,0,0-3.243,3.159A3.19,3.19,0,0,0,14.323-26.209ZM11.288-1.058h6.069V-23.34H11.288Zm8.931,0h6.069v-12.8c0-2.91,1.725-4.905,4.448-4.905s4.095,1.663,4.095,4.573V-1.058H40.9V-15.442c0-5.217-2.785-8.356-7.691-8.356a6.914,6.914,0,0,0-6.8,4.116h-.125V-23.34H20.219ZM53.7-.6c6.36,0,9.437-3.762,10.122-7.046l.062-.229h-5.57l-.042.125a4.494,4.494,0,0,1-4.448,2.619c-3.1,0-5.03-2.079-5.092-5.633h15.34v-1.871c0-6.734-4.095-11.162-10.621-11.162s-10.7,4.531-10.7,11.619v.021C42.743-5.028,46.879-.6,53.7-.6Zm-.146-18.665c2.515,0,4.323,1.6,4.7,4.677H48.792C49.187-17.6,51.057-19.266,53.551-19.266Z" transform="translate(677.389 346.613)" fill="#1e88e5"/>
  </g>
</svg>
